Patient4_TMGait_0pt7_02_right_32_EMG.mot
version=1
nRows=33
nColumns=33
inDegrees=no
endheader
time	1LAddLong	2LGlutMax	3LGlutMed	4LIliopsoas	5LSemiMemb	6LBicFemLong	7LRecFem	8LVastMed	9LVastLat	10LGasMed	11LTibAnt	12lTibPost	13LPeroneusLong	14LSol	15LExtDigLong	16LFlexDigLong	17RAddLong	18RGlutMax	19RGlutMed	20RIliopsoas	21RSemiMemb	22RBicFemLong	23RRecFem	24RVastMed	25RVastLat	26RGasMed	27RTibAnt	28RTibPost	29RPeroneusLong	30RSol	31RExtDigLong	32RFlexDigLong
36.04	-0.012512	0.010376	0.076294	-0.020142	0.075378	0.058899	0.10513	0.002136	0.028076	0.087433	-0.027618	0.007629	-0.27573	-0.19409	-0.087128	-0.003204	0.07431	-0.24124	0.85861	0.071564	0.005646	0.018463	0.17685	-0.046387	0.00885	-0.021515	-0.6131	-0.003662	0.0914	-0.011902	-0.003052	0.011597
36.041	-0.009613	0.00351	0.093994	-0.016479	0.1088	0.093689	0.054169	0.006409	0.071411	0.19577	-0.022278	0.003662	0.14969	-0.19714	-0.095673	-0.00946	0.075989	-0.2356	0.85709	-0.003662	0.016479	0.041199	0.17883	-0.10422	0.008698	-0.03952	-0.34424	-0.003204	0.033722	0.000153	-0.005646	0.004883
36.042	-0.000153	-0.006866	0.078278	-0.015259	0.064545	0.13596	-0.020294	0.017853	0.07843	0.24002	-0.017853	0.003662	0.36819	-0.1648	-0.007935	-0.04303	0.061188	-0.27069	0.73486	-0.037689	0.027466	0.044098	0.15518	-0.012665	0.018005	-0.062714	0.23422	-0.002289	-0.11307	0.000763	-0.005035	0.007019
36.043	0.007782	-0.021667	-0.021973	0.014954	0.061951	0.20889	0.066681	0.013428	0.11002	0.27771	-0.016327	0.010071	0.001984	-0.10239	-0.099335	-0.032043	0.003967	-0.23773	0.65948	-0.063477	0.019836	0.048676	0.1326	-0.081482	0.016022	-0.064545	0.38406	-0.002747	-0.18417	-0.018616	-0.005188	0.004883
36.044	0.014343	-0.010376	0.042725	0.021057	0.058594	-0.031281	0.12283	0.000916	0.050812	0.31754	-0.011444	0.017242	-0.41901	-0.042114	-0.15076	0.063782	-0.045624	-0.17624	0.93048	-0.12634	-0.031738	0.041656	0.15091	-0.074005	0.005798	-0.059052	0.46555	0.007019	-0.21637	0.021973	0.004272	0.001068
36.045	0.017853	-0.023651	0.026703	0.010529	-0.031738	-0.051575	0.060577	0.010376	-0.12329	0.26169	0.023346	0.013275	-0.17441	0.007477	-0.04303	-0.12695	-0.066376	-0.22568	1.0768	-0.13718	-0.051575	0.027161	0.1329	-0.094604	0.011597	-0.046997	0.58838	-0.004425	-0.22614	0.11795	-0.000916	-0.010529
36.046	0.016632	-0.019379	0.016785	-0.00473	-0.11154	-0.047607	0.034943	0.013428	-0.11673	0.25818	0.020447	0.022736	-0.29282	-0.13245	-0.036469	0.1648	-0.075531	-0.21255	0.97015	-0.079193	-0.088196	0.022888	0.10941	-0.069427	0.007324	-0.037689	0.61249	-0.003815	-0.1918	0.089111	-0.000153	-0.012665
36.047	0.011902	-0.038605	-0.00351	-0.006714	-0.13931	-0.078735	0.034637	0.006866	-0.026245	0.16068	0.010529	0.022888	-0.095367	-0.26779	-0.006409	0.20065	-0.07431	-0.18768	0.75409	-0.007629	-0.12421	0.010529	0.091095	-0.06012	0.015259	-0.012054	0.48966	0.000153	-0.080719	-0.063324	-0.000305	-0.004425
36.048	0.02243	-0.090179	-0.045776	0.015717	-0.085449	-0.15625	0.003052	0.006256	0.058594	0.044708	-0.024109	0.011444	0.019684	-0.30243	0.05722	-0.10819	-0.055695	-0.17929	0.55237	-0.046692	-0.062866	0.002899	0.097198	-0.057983	0.002747	-0.016479	0.06073	-0.003357	0.031128	-0.076447	0.003967	-0.001526
36.049	0.012512	-0.05188	-0.13596	0.02594	-0.09079	-0.33905	0.005646	0.000458	0.080261	0.050049	-0.005035	0.017395	-0.15045	-0.27008	0.060577	-0.13901	-0.048065	-0.12161	0.57831	-0.11536	0.13534	-0.011902	0.096283	-0.090485	0.009308	-0.018616	-0.39459	-0.001678	0.089264	-0.060883	0.001221	-0.00946
36.05	0.005798	-0.085297	-0.071411	0.010071	-0.10986	-0.42511	-0.003662	0.008545	0.081024	0.20248	0.045166	0.013885	-0.021057	-0.32745	0.034027	-0.05661	-0.030365	-0.14847	0.55496	-0.11292	0.17487	-0.050964	0.077209	-0.082855	0.013428	-0.021057	-0.54169	-0.003815	0.065155	-0.026245	0.001831	-0.006409
36.051	0.011139	-0.066376	-0.005493	0.010529	-0.019226	-0.26016	0.06424	-0.002136	0.0177	0.20401	0.043488	0.02182	-0.059509	-0.68909	0.02594	-0.038147	-0.015106	-0.17883	0.52917	-0.084381	0.10666	-0.048828	0.10483	-0.052185	0.003204	-0.018311	-0.51941	-0.001221	0.020142	0.009918	0.001068	-0.014496
36.052	0.016327	-0.10422	-0.046234	0.021362	0.069733	-0.046997	0.088043	0.015411	-0.077667	0.16769	0.01236	0.034943	-0.055389	-0.61447	0.033264	-0.036926	-0.003357	-0.17273	0.57465	-0.037689	0.12512	-0.038147	0.068817	-0.021973	-0.001373	-0.002899	-0.67108	-0.001984	0.14206	-0.068359	-0.003967	-0.013123
36.053	0.022278	-0.10773	-0.085449	0.017395	0.097656	0.04303	0.038452	0.016785	-0.037537	0.030365	-0.022278	0.032959	-0.015106	-0.20325	0.064545	-0.011139	-0.000153	-0.21515	0.55832	-0.063324	0.13046	-0.026398	0.076752	-0.069885	0.014496	-0.000458	-0.63385	-0.002747	0.29373	-0.14648	-0.000763	-0.011292
36.054	0.028076	-0.12833	-0.12222	0.031738	0.12741	0.017853	0.081329	0.007324	-0.010986	-0.13031	0.019531	0.035706	-0.023651	-0.19928	0.042419	0.006256	0.002289	-0.15411	0.51407	-0.05188	0.023499	0.00824	0.13138	-0.061646	0.002899	-0.006714	-0.38742	-0.003662	0.26367	-0.14557	-0.001373	-0.005798
36.055	0.014191	-0.092621	-0.050507	0.041046	0.11429	0.065002	0.063629	0.023346	-0.045166	-0.039215	0.020752	0.022278	-0.13458	-0.087891	0.006561	0.007629	0.009308	-0.11551	0.60471	-0.07782	-0.019836	-0.050812	0.10208	-0.089722	-0.024261	0.003815	0.12695	0	0.30258	-0.17197	0.00061	0.002289
36.056	0.006409	-0.12985	-0.028381	0.013733	0.076447	0.16052	0.059052	0.025482	-0.088806	0.040588	0.001221	0.019684	-0.31082	0.1088	-0.075226	-0.003815	0.032501	-0.1059	0.55679	-0.12924	-0.037079	-0.061188	0.092773	-0.057068	-0.009155	0.014038	0.26443	-0.002136	0.16235	-0.13443	0	0.004883
36.057	0.003204	-0.11734	-0.058899	-0.009613	0.062256	0.11871	0.036316	0.019226	-0.00061	0.20966	0.007935	0.025482	-0.20554	0.50613	-0.092163	-0.031738	0.032501	-0.11734	0.5571	-0.14679	-0.086975	-0.028381	0.099335	-0.034027	-0.016327	-0.002136	0.23468	-0.005798	-0.027161	-0.05722	0.001526	0.014496
36.058	0.011749	-0.10452	-0.046844	-0.010681	0.047302	0.068054	0.060272	-0.001221	0.081787	0.18524	-0.026703	0.027771	0.032501	0.61279	-0.041351	-0.005341	0.032043	-0.12344	0.6247	-0.059357	-0.024109	-0.018311	0.1442	-0.009308	-0.000458	0.003662	0.10346	-0.001678	-0.055389	-0.03952	-0.001068	-0.002441
36.059	0.007324	-0.11169	0.001221	-0.002747	0.007935	0.049591	0.030518	-0.002899	0.016174	-0.059967	-0.019226	0.028992	-0.18433	0.36499	-0.029297	-0.009155	0.016174	-0.15762	0.69046	0.1297	-0.000763	-0.009003	0.18478	0.024719	0.00351	0.004578	0.22919	-0.001221	-0.061646	0.042267	0.009308	-0.002289
36.06	0.00946	-0.11276	-0.008392	-0.019531	0.005035	0.24246	0.03891	0.008698	-0.073853	-0.22034	-0.005493	0.045013	0.14542	0.19653	-0.018616	-0.023804	0.006104	-0.16571	0.62561	0.26886	-0.036163	0.007782	0.20309	0.047302	0.007935	0.007477	0.27771	-0.005035	0.014343	0.047455	-0.001221	0.002441
36.061	-0.000763	-0.12772	-0.040283	-0.000153	-0.000916	0.31296	0.039215	0.010376	-0.099182	-0.25253	0.033875	0.044098	0.020142	0.26977	0.032806	-0.001831	-0.019836	-0.18448	0.59692	0.15732	-0.067749	0.007935	0.22659	0.023804	0.002899	0.009766	0.42938	-0.009766	-0.043182	-0.012512	0.000763	0.00412
36.062	0.009003	-0.089264	-0.077972	-0.003357	-0.017853	0.27588	-0.005035	0.005951	-0.13428	-0.21042	0.068054	0.04425	-0.159	0.31326	0.20096	-0.01358	-0.022736	-0.18906	0.38544	-0.008392	-0.082092	0.017242	0.18585	-0.035248	0.007782	0.013275	0.38773	-0.001221	-0.13641	-0.055695	-0.006409	0.001984
36.063	0.011597	-0.080414	-0.15472	0.00473	-0.0177	0.21942	-0.067139	0.018616	-0.10651	-0.24796	0.044556	0.034637	-0.060883	0.3685	0.023499	0.000916	-0.014038	-0.15671	0.29572	0.008545	-0.047913	0.015106	0.121	-0.071716	-0.007019	0.02121	0.43289	-0.003204	-0.18509	-0.023499	-0.00061	0.005188
36.064	0.023956	-0.054474	-0.12512	0.005341	0.02655	0.24841	-0.097046	0.021667	-0.017395	-0.087738	0.014191	0.030975	0.17166	0.39368	-0.16159	0.013428	-0.019989	-0.13855	0.40359	0.059204	-0.055542	0.037384	0.13031	-0.041656	0.013885	0.030518	0.41473	-0.003204	-0.06012	0.056915	-0.001373	0.013123
36.065	0.013885	-0.037994	-0.010986	-0.013885	0.038757	0.30991	-0.10666	-0.002747	0.20081	0.44174	-0.008087	0.024872	0.2124	0.17502	-0.13443	-0.000153	-0.016174	-0.042267	0.50049	0.08667	-0.05249	0.003204	0.1088	-0.059357	-0.010529	0.035858	0.46204	-0.004425	0.032806	0.14038	-0.001678	0.029144
36.066	0.001526	-0.033875	-0.017395	-0.003052	0.018463	-0.036469	-0.032654	0.021973	0.072784	0.29037	0.003815	0.022888	0.052643	0.044556	-0.15533	-0.006561	-0.028992	-0.06012	0.32486	0.21149	0.034485	-0.045776	-0.019531	-0.031281	0.009308	0.041962	0.4921	-0.003662	-0.059509	0.11276	0	0.054321
36.067	-0.004272	0.000153	-0.005341	0.024261	-0.003204	0.074158	0.077209	0.015106	0.066681	-0.2243	0.004578	0.045776	0.21072	-0.017242	-0.026093	-0.011749	-0.020447	-0.097809	0.075378	0.32318	0.034943	-0.057983	-0.089722	-0.048065	0.00412	0.044098	0.54153	-0.003052	-0.18066	0.071716	0.003357	-0.004578
36.068	-0.002594	0.035858	0.014496	0.007324	-0.040894	0.1944	0.14648	0.00946	0.057983	-0.17334	0.012207	0.046539	0.28397	-0.11612	0.086212	-0.054932	-0.016174	-0.1239	0.15732	0.22949	-0.019684	-0.048523	-0.05661	-0.049591	0.018616	0.052795	0.083008	-0.001984	0.000458	-0.061035	-0.00473	-0.095367
36.069	-0.007782	0.039978	0.035858	-0.00946	-0.064392	0.12634	0.1503	0.002441	0.000763	0.027466	-0.028687	0.048065	0.26993	-0.10788	0.099487	-0.07843	-0.012207	-0.12955	0.32761	0.06897	0.002747	-0.039368	-0.066071	-0.05722	0.025177	0.055847	-1.0867	0.007782	0.023193	-0.11337	-0.003357	-0.10529
36.07	0.006866	0.027466	0.056763	0.005341	-0.072327	-0.053253	0.11093	0.003204	0.002289	0.001678	-0.020447	-0.025177	0.13107	-0.059662	0.015106	0.017548	-0.005188	-0.19577	0.25528	-0.09079	-0.02121	-0.045776	0.003357	-0.041809	0.010376	0.057373	-1.1308	-0.003204	0.045776	0.005646	0.003204	-0.13306
36.071	0.020905	0.035095	0.081482	-0.002441	-0.013733	-0.17242	0.078888	0.006256	0.090637	-0.071411	0.007324	0.034027	-0.022736	-0.10117	-0.020752	0.15625	0.010986	-0.14358	0.34821	-0.10895	-0.040436	-0.054626	0.022736	-0.081635	0.014648	0.041504	-0.64789	-0.003815	0.063782	0.061646	0.002899	-0.14786
36.072	0.028229	0.010529	0.049591	0.015717	0.06424	-0.15411	0.15396	-0.019836	0.14847	0.073547	0.022888	0.050964	0.15503	-0.077972	0.00412	0.034027	0.003967	-0.1767	0.21088	-0.058899	-0.045166	0.091705	0.053253	-0.089417	0.014038	0.039825	-0.024719	-0.005493	-0.058289	0.049591	0.002136	-0.12878
